<svg width="30" height="30" viewBox="0 0 30 30" fill="none" xmlns="http://www.w3.org/2000/svg">
<path d="M26.7084 27V10.698L15.125 3.49795L3.54171 10.698V27H9.33337V22.875C9.33337 21.2837 9.94357 19.7575 11.0297 18.6323C12.1159 17.5071 13.589 16.875 15.125 16.875C16.6611 16.875 18.1342 17.5071 19.2204 18.6323C20.3065 19.7575 20.9167 21.2837 20.9167 22.875V27H26.7084ZM18.0209 30V22.875C18.0209 22.0793 17.7158 21.3162 17.1727 20.7536C16.6296 20.191 15.8931 19.875 15.125 19.875C14.357 19.875 13.6205 20.191 13.0774 20.7536C12.5343 21.3162 12.2292 22.0793 12.2292 22.875V30H3.54171C2.77368 30 2.03712 29.6839 1.49404 29.1213C0.95097 28.5587 0.645874 27.7956 0.645874 27V10.698C0.645869 10.1799 0.775362 9.67066 1.02174 9.21985C1.26812 8.76903 1.623 8.392 2.0518 8.12545L13.6351 0.925454C14.0852 0.645701 14.6002 0.497925 15.125 0.497925C15.6499 0.497925 16.1649 0.645701 16.6149 0.925454L28.1983 8.12545C28.6271 8.392 28.982 8.76903 29.2283 9.21985C29.4747 9.67066 29.6042 10.1799 29.6042 10.698V27C29.6042 27.7956 29.2991 28.5587 28.756 29.1213C28.213 29.6839 27.4764 30 26.7084 30H18.0209Z" fill="#408782"/>
</svg>
