<svg width="35" height="34" viewBox="0 0 35 34" fill="none" xmlns="http://www.w3.org/2000/svg">
<path fill-rule="evenodd" clip-rule="evenodd" d="M9 23.375H4.75V29.75H9V23.375ZM19.625 14.875H15.375V29.75H19.625V14.875ZM30.25 4.25H26V29.75H30.25V4.25ZM26 2.125C25.4364 2.125 24.8959 2.34888 24.4974 2.7474C24.0989 3.14591 23.875 3.68641 23.875 4.25V29.75C23.875 30.3136 24.0989 30.8541 24.4974 31.2526C24.8959 31.6511 25.4364 31.875 26 31.875H30.25C30.8136 31.875 31.3541 31.6511 31.7526 31.2526C32.1511 30.8541 32.375 30.3136 32.375 29.75V4.25C32.375 3.68641 32.1511 3.14591 31.7526 2.7474C31.3541 2.34888 30.8136 2.125 30.25 2.125H26ZM13.25 14.875C13.25 14.3114 13.4739 13.7709 13.8724 13.3724C14.2709 12.9739 14.8114 12.75 15.375 12.75H19.625C20.1886 12.75 20.7291 12.9739 21.1276 13.3724C21.5261 13.7709 21.75 14.3114 21.75 14.875V29.75C21.75 30.3136 21.5261 30.8541 21.1276 31.2526C20.7291 31.6511 20.1886 31.875 19.625 31.875H15.375C14.8114 31.875 14.2709 31.6511 13.8724 31.2526C13.4739 30.8541 13.25 30.3136 13.25 29.75V14.875ZM2.625 23.375C2.625 22.8114 2.84888 22.2709 3.2474 21.8724C3.64591 21.4739 4.18641 21.25 4.75 21.25H9C9.56359 21.25 10.1041 21.4739 10.5026 21.8724C10.9011 22.2709 11.125 22.8114 11.125 23.375V29.75C11.125 30.3136 10.9011 30.8541 10.5026 31.2526C10.1041 31.6511 9.56359 31.875 9 31.875H4.75C4.18641 31.875 3.64591 31.6511 3.2474 31.2526C2.84888 30.8541 2.625 30.3136 2.625 29.75V23.375Z" fill="#AAAAAA"/>
</svg>
